<mxfile host="app.diagrams.net" modified="2022-03-12T16:41:27.933Z" agent="5.0 (X11)" etag="F6V3Quo5KkYMh2zfUqVt" version="17.1.2" type="github">
  <diagram id="Toqo3YY0TOeya2npDGFU" name="Page-1">
    <mxGraphModel dx="1422" dy="729" grid="1" gridSize="10" guides="1" tooltips="1" connect="1" arrows="1" fold="1" page="1" pageScale="1" pageWidth="850" pageHeight="1100" math="0" shadow="0">
      <root>
        <mxCell id="0" />
        <mxCell id="1" parent="0" />
        <mxCell id="CcFSkTyzFHJaOgrXIXWp-1" value="Asignatura" style="rounded=0;whiteSpace=wrap;html=1;" vertex="1" parent="1">
          <mxGeometry x="560" y="100" width="120" height="60" as="geometry" />
        </mxCell>
        <mxCell id="CcFSkTyzFHJaOgrXIXWp-13" value="" style="edgeStyle=none;rounded=0;orthogonalLoop=1;jettySize=auto;html=1;endArrow=none;endFill=0;" edge="1" parent="1" source="CcFSkTyzFHJaOgrXIXWp-2" target="CcFSkTyzFHJaOgrXIXWp-12">
          <mxGeometry relative="1" as="geometry" />
        </mxCell>
        <mxCell id="CcFSkTyzFHJaOgrXIXWp-2" value="Estudiante" style="rounded=0;whiteSpace=wrap;html=1;" vertex="1" parent="1">
          <mxGeometry x="80" y="100" width="120" height="60" as="geometry" />
        </mxCell>
        <mxCell id="CcFSkTyzFHJaOgrXIXWp-7" value="" style="rounded=0;orthogonalLoop=1;jettySize=auto;html=1;endArrow=none;endFill=0;" edge="1" parent="1" source="CcFSkTyzFHJaOgrXIXWp-3" target="CcFSkTyzFHJaOgrXIXWp-6">
          <mxGeometry relative="1" as="geometry" />
        </mxCell>
        <mxCell id="CcFSkTyzFHJaOgrXIXWp-10" value="" style="edgeStyle=none;rounded=0;orthogonalLoop=1;jettySize=auto;html=1;endArrow=none;endFill=0;" edge="1" parent="1" source="CcFSkTyzFHJaOgrXIXWp-3" target="CcFSkTyzFHJaOgrXIXWp-9">
          <mxGeometry relative="1" as="geometry" />
        </mxCell>
        <mxCell id="CcFSkTyzFHJaOgrXIXWp-3" value="Preguntas" style="rounded=0;whiteSpace=wrap;html=1;" vertex="1" parent="1">
          <mxGeometry x="560" y="320" width="120" height="60" as="geometry" />
        </mxCell>
        <mxCell id="CcFSkTyzFHJaOgrXIXWp-4" value="EvaluaciÃ³n" style="rounded=0;whiteSpace=wrap;html=1;" vertex="1" parent="1">
          <mxGeometry x="400" y="100" width="120" height="60" as="geometry" />
        </mxCell>
        <mxCell id="CcFSkTyzFHJaOgrXIXWp-6" value="Tipo" style="ellipse;whiteSpace=wrap;html=1;rounded=0;" vertex="1" parent="1">
          <mxGeometry x="580" y="250" width="80" height="40" as="geometry" />
        </mxCell>
        <mxCell id="CcFSkTyzFHJaOgrXIXWp-11" value="" style="edgeStyle=none;rounded=0;orthogonalLoop=1;jettySize=auto;html=1;endArrow=none;endFill=0;" edge="1" parent="1" source="CcFSkTyzFHJaOgrXIXWp-8" target="CcFSkTyzFHJaOgrXIXWp-9">
          <mxGeometry relative="1" as="geometry" />
        </mxCell>
        <mxCell id="CcFSkTyzFHJaOgrXIXWp-8" value="Respuesta correcta" style="rounded=0;whiteSpace=wrap;html=1;" vertex="1" parent="1">
          <mxGeometry x="560" y="520" width="120" height="60" as="geometry" />
        </mxCell>
        <mxCell id="CcFSkTyzFHJaOgrXIXWp-9" value="Tiene" style="rhombus;whiteSpace=wrap;html=1;rounded=0;" vertex="1" parent="1">
          <mxGeometry x="580" y="410" width="80" height="80" as="geometry" />
        </mxCell>
        <mxCell id="CcFSkTyzFHJaOgrXIXWp-14" value="" style="edgeStyle=none;rounded=0;orthogonalLoop=1;jettySize=auto;html=1;endArrow=none;endFill=0;" edge="1" parent="1" source="CcFSkTyzFHJaOgrXIXWp-12" target="CcFSkTyzFHJaOgrXIXWp-4">
          <mxGeometry relative="1" as="geometry" />
        </mxCell>
        <mxCell id="CcFSkTyzFHJaOgrXIXWp-16" value="" style="edgeStyle=none;rounded=0;orthogonalLoop=1;jettySize=auto;html=1;endArrow=none;endFill=0;" edge="1" parent="1" source="CcFSkTyzFHJaOgrXIXWp-12" target="CcFSkTyzFHJaOgrXIXWp-15">
          <mxGeometry relative="1" as="geometry" />
        </mxCell>
        <mxCell id="CcFSkTyzFHJaOgrXIXWp-17" value="" style="edgeStyle=none;rounded=0;orthogonalLoop=1;jettySize=auto;html=1;endArrow=none;endFill=0;" edge="1" parent="1" source="CcFSkTyzFHJaOgrXIXWp-12" target="CcFSkTyzFHJaOgrXIXWp-15">
          <mxGeometry relative="1" as="geometry" />
        </mxCell>
        <mxCell id="CcFSkTyzFHJaOgrXIXWp-19" value="" style="edgeStyle=none;rounded=0;orthogonalLoop=1;jettySize=auto;html=1;endArrow=none;endFill=0;" edge="1" parent="1" source="CcFSkTyzFHJaOgrXIXWp-12" target="CcFSkTyzFHJaOgrXIXWp-18">
          <mxGeometry relative="1" as="geometry" />
        </mxCell>
        <mxCell id="CcFSkTyzFHJaOgrXIXWp-12" value="Presenta" style="rhombus;whiteSpace=wrap;html=1;rounded=0;" vertex="1" parent="1">
          <mxGeometry x="250" y="90" width="80" height="80" as="geometry" />
        </mxCell>
        <mxCell id="CcFSkTyzFHJaOgrXIXWp-15" value="&lt;u&gt;fecha_pres&lt;/u&gt;" style="ellipse;whiteSpace=wrap;html=1;rounded=0;" vertex="1" parent="1">
          <mxGeometry x="130" y="20" width="120" height="60" as="geometry" />
        </mxCell>
        <mxCell id="CcFSkTyzFHJaOgrXIXWp-18" value="" style="ellipse;whiteSpace=wrap;html=1;rounded=0;" vertex="1" parent="1">
          <mxGeometry x="230" y="190" width="120" height="60" as="geometry" />
        </mxCell>
      </root>
    </mxGraphModel>
  </diagram>
</mxfile>
